<?xml version="1.0" standalone="no"?>
<!DOCTYPE svg PUBLIC "-//W3C//DTD SVG 1.1//EN" "http://www.w3.org/Graphics/SVG/1.1/DTD/svg11.dtd" >
<svg xmlns="http://www.w3.org/2000/svg">
<metadata>Generated by IcoMoon</metadata>
<defs>
<font id="icomoon" horiz-adv-x="1024">
<font-face units-per-em="1024" ascent="960" descent="-64" />
<missing-glyph horiz-adv-x="1024" />
<glyph unicode="&#x20;" horiz-adv-x="512" d="" />
<glyph unicode="&#xe900;" glyph-name="arrow-bold-down" horiz-adv-x="1463" d="M735.703 281.717l526.658 674.135 165.711-129.46-692.367-886.246-692.391 886.244 165.709 129.463z" />
<glyph unicode="&#xe901;" glyph-name="arrow-bold-top" horiz-adv-x="1331" d="M669.634 572.466l-476.381-606.314-173.62 136.413 649.998 827.286 650.021-827.284-173.618-136.417z" />
<glyph unicode="&#xe902;" glyph-name="arrow-right" horiz-adv-x="751" d="M469.133 453.258l-471.155 371.581 97.231 123.286 627.475-494.864-627.474-494.882-97.233 123.284z" />
<glyph unicode="&#xe903;" glyph-name="email-inverted" d="M512.106 411.668c19.837 0.189 46.512 34.44 59.131 46.97 50.377 50.020 98.495 99.113 147.155 147.418 3.895 3.868 11.876 10.237 9.206 13.058-143.661-0.877-290.826 1.724-432.289-1.306 49.845-50.409 105.743-106.31 158.981-159.17 13.292-13.198 36.754-47.159 57.816-46.97zM619.842 380.363c-4.728 4.695-29.666 36.772-35.469 36.533-2.369-0.11-13.342-14.563-18.392-19.567-6.787-6.748-14.577-13.367-21.022-16.966-45.809-25.578-83.627 10.277-106.436 36.533-0.070 0.787-0.191 1.535-1.305 1.296-40.117-42.055-84.801-87.779-124.828-129.157-6.003-6.19-15.691-11.005-14.456-16.956h427.028c-29.776 35.287-69.11 72.538-105.121 108.283zM794.607 232.938h-567.627v421.391c-0.12 1.854-0.221 3.698 1.325 3.917h566.302v-425.308zM510.778 952.744c-282.102 0-510.775-227.063-510.775-507.156 0-280.083 228.673-507.147 510.775-507.147 282.082 0 510.755 227.063 510.755 507.147 0 280.093-228.673 507.156-510.755 507.156zM613.274 446.898c37.898-44.149 85.414-87.43 124.828-129.157 5.752-6.1 11.716-15.65 17.087-14.354-0.873 93.939 1.757 191.347-1.315 283.104-46.311-47.079-93.174-93.6-140.599-139.593zM409.616 446.898c-47.977 47.169-94.067 96.192-143.219 142.205v-287.021c47.375 43.421 96.708 96.202 143.219 144.816z" />
<glyph unicode="&#xe904;" glyph-name="facebook-inverted" horiz-adv-x="992" d="M596.393 448.923h-92.181v-245.026h-93.779v245.026h-65.415v88.232h65.415v75.338c0 59.192 38.492 113.564 127.223 113.564 36.026 0 62.568-3.465 62.568-3.465l-2.096-82.337c0 0-27.146 0.242-56.661 0.242-32.079 0-37.254-14.617-37.254-38.942v-64.4h96.499l-4.318-88.232zM0 444.287c0-271.965 222.026-492.442 495.937-492.442 273.891 0 496.063 220.478 496.063 492.442 0 272.013-222.172 492.53-496.063 492.53-273.911 0-495.937-220.516-495.937-492.53z" />
<glyph unicode="&#xe905;" glyph-name="facebook" horiz-adv-x="546" d="M504.526 416.517h-185.020v-480.517h-188.229v480.517h-131.277v173.030h131.277v147.745c0 116.081 77.279 222.709 255.354 222.709 72.33 0 125.584-6.796 125.584-6.796l-4.206-161.469c0 0-54.487 0.475-113.708 0.475-64.386 0-74.795-28.664-74.795-76.369v-126.294h193.687l-8.667-173.030z" />
<glyph unicode="&#xe906;" glyph-name="hamburger" horiz-adv-x="1418" d="M2.834 728.178v204.17h1111.188v-204.17zM2.997 345.915v204.17h1400.966v-204.17zM2.834-36.347v204.17h1111.188v-204.17z" />
<glyph unicode="&#xe907;" glyph-name="instagram" horiz-adv-x="989" d="M898.048 261.082c0-59.486-18.65-111.525-55.904-144.981-33.533-33.455-85.694-52.062-145.341-52.062h-406.166c-59.602 0-108.042 18.606-145.319 52.062-37.254 37.168-55.881 89.207-55.881 148.693v408.956c0 59.464 18.627 111.503 52.161 144.981 33.533 33.455 85.694 52.039 145.319 52.039h409.887c63.368 0 111.808-18.584 149.062-55.752 33.533-37.19 52.183-85.517 52.183-145.003v-408.934zM909.211 878.218c-52.161 52.039-122.948 81.782-208.687 81.782h-409.887c-175.109 0-290.637-118.972-290.637-289.984v-408.934c0-85.495 26.091-159.852 81.973-211.914 52.183-52.039 126.692-78.070 208.664-78.070h406.166c81.995 0 156.526 26.031 208.687 78.070 52.161 52.062 81.973 126.419 81.973 211.914v408.934c0 85.517-26.091 156.162-78.252 208.202zM754.501 803.457c-33.533 0-59.625-26.031-59.625-59.486s26.091-59.464 59.625-59.464c33.533 0 59.602 26.008 59.602 59.464s-26.069 59.486-59.602 59.486zM499.974 319.987c-90.558 0-163.946 73.24-163.946 163.565 0 90.347 73.388 163.587 163.946 163.587 90.536 0 163.946-73.24 163.946-163.587 0-90.325-73.41-163.565-163.946-163.565zM499.974 736.368c-137.877 0-253.405-111.525-253.405-252.816 0-137.534 111.808-252.794 253.405-252.794 141.575 0 257.104 111.548 257.104 252.794 0 141.291-119.25 252.816-257.104 252.816z" />
<glyph unicode="&#xe908;" glyph-name="pause" horiz-adv-x="904" d="M120.471 779.294h223.225v-783.059h-223.225v783.059zM542.118 779.294h223.225v-783.059h-223.225v783.059z" />
<glyph unicode="&#xe909;" glyph-name="play-inverted" d="M512-64c-282.77 0-512 229.23-512 512s229.23 512 512 512c282.77 0 512-229.23 512-512s-229.23-512-512-512zM467.859 657.581c-23.283 18.294-57.409 1.707-57.409-27.903v-363.355c0-29.611 34.127-46.197 57.41-27.903l231.226 181.681c18.082 14.208 18.082 41.599-0.001 55.806l-231.226 181.674z" />
<glyph unicode="&#xe90a;" glyph-name="play" horiz-adv-x="723" d="M602.353 387.765l-481.882-391.529v783.059z" />
<glyph unicode="&#xe90b;" glyph-name="search" d="M669.538 546.199c0.251 141.049-113.739 255.773-254.623 256.261-141.988 0.496-256.918-113.289-257.376-254.81-0.455-141.627 113.86-256.805 255.263-257.188 141.443-0.38 256.481 114.212 256.735 255.736zM848.157 536.533c-2.816-70.102-19.747-135.562-52.895-196.738-4.662-8.604-3.739-13.318 3.019-20.103 70.815-71.107 141.268-142.575 211.821-213.948 18.459-18.678 18.541-31.29 0.181-49.859-33.722-34.098-67.492-68.15-101.243-102.216-23.249-23.462-33.341-23.534-56.21-0.368-68.948 69.833-138.038 139.531-206.621 209.724-7.71 7.895-12.724 8.273-22.256 3.010-255.049-140.929-564.932 13.934-616.539 291.73-42.451 228.516 101.433 443.088 328.264 492.858 220.94 48.484 448.822-96.132 498.141-316.99 7.11-31.847 9.671-64.706 14.338-97.101z" />
<glyph unicode="&#xe90c;" glyph-name="share" horiz-adv-x="1103" d="M603.315 768.76c0 31.773 0.047 62.489-0.013 93.203-0.049 26.51-0.646 53.031-0.029 79.525 0.151 6.408 2.946 17.108 6.637 18.088 5.908 1.573 15.255-1.432 20.255-5.766 77.056-66.813 153.646-134.157 230.349-201.373 65.053-57.008 130.103-114.014 195.171-171.004 17.828-15.615 17.82-18.227 0.252-33.672-139.292-122.466-278.558-244.958-417.839-367.435-3.878-3.413-7.312-7.839-11.837-9.861-4.994-2.23-11.826-4.293-16.314-2.546-3.554 1.381-6.7 8.612-6.731 13.264-0.293 45.325 0.119 90.649 0.293 135.974 0.057 14.455 0.010 28.909 0.010 46.446-27.289-1.291-53.904 0.205-79.477-4.198-187.695-32.328-333.16-127.314-430.929-290.019-16.608-27.637-26.843-59.020-39.944-88.707-1.376-3.115-2.287-6.441-3.307-9.705-2.243-7.177-6.061-12.623-14.689-11.332-8.732 1.301-10.526 7.624-10.277 15.189 0.976 29.479 1.129 59.007 2.97 88.43 6.165 98.517 23.043 195.063 56.897 288.245 41.535 114.319 104.353 214.696 199.862 292.87 90.146 73.78 193.042 117.126 310.784 123.511 2.136 0.115 4.262 0.462 7.907 0.872z" />
<glyph unicode="&#xe90d;" glyph-name="twitter-inverted" horiz-adv-x="992" d="M705.824 499.395c0-129.033-98.914-277.814-279.83-277.814-55.535 0-107.249 16.117-150.813 43.869 7.779-0.978 15.558-1.413 23.454-1.413 46.157 0 88.611 15.633 122.173 41.798-43.009 0.794-79.35 29.040-91.818 67.837 5.927-1.113 12.097-1.723 18.453-1.723 8.949 0 17.771 1.162 25.979 3.398-45.046 8.973-78.989 48.438-78.989 95.735v1.229c13.335-7.318 28.513-11.674 44.617-12.197-26.349 17.53-43.75 47.432-43.75 81.282 0 17.889 4.816 34.683 13.267 49.116 48.565-59.135 121.004-97.98 202.83-102.056-1.735 7.105-2.661 14.617-2.661 22.244 0 53.946 44.062 97.7 98.427 97.7 28.26 0 53.81-11.887 71.698-30.879 22.343 4.375 43.564 12.497 62.573 23.677-7.409-22.787-23.025-41.914-43.321-54.014 19.867 2.362 38.749 7.628 56.393 15.41-13.072-19.602-29.8-36.822-48.984-50.578 0.244-4.162 0.302-8.392 0.302-12.623zM0 436.369c0-271.967 222.102-492.447 495.956-492.447 273.932 0 496.044 220.48 496.044 492.447 0 271.938-222.111 492.525-496.044 492.525-273.855 0-495.956-220.586-495.956-492.525z" />
<glyph unicode="&#xe90e;" glyph-name="twitter" horiz-adv-x="1182" d="M1063.265 709.759c0.602-10.807 0.747-21.79 0.747-32.772 0-335.012-244.392-721.294-691.389-721.294-137.213 0-264.985 41.845-372.622 113.899 19.22-2.538 38.44-3.669 57.949-3.669 114.043 0 218.934 40.588 301.86 108.521-106.264 2.061-196.053 75.397-226.858 176.126 14.644-2.89 29.89-4.474 45.593-4.474 22.11 0 43.907 3.016 64.187 8.821-111.298 23.298-195.162 125.761-195.162 248.557v3.192c32.949-19 70.449-30.309 110.238-31.667-65.102 45.514-108.094 123.148-108.094 211.035 0 46.444 11.898 90.049 32.78 127.521 119.992-153.533 298.969-254.388 501.14-264.969-4.287 18.447-6.575 37.95-6.575 57.754 0 140.062 108.865 253.659 243.188 253.659 69.823 0 132.95-30.862 177.147-80.172 55.203 11.36 107.637 32.446 154.603 61.473-18.305-59.161-56.889-108.822-107.035-140.238 49.086 6.132 95.739 19.804 139.333 40.010-32.298-50.893-73.628-95.603-121.028-131.316z" />
<glyph unicode="&#xe90f;" glyph-name="youtube" horiz-adv-x="1741" d="M1101.564 392.209l-404.014-257.801c-17.28-11.009-34.038-16.594-49.097-16.594-8.95 0-17.248 1.958-24.761 5.938-20.057 10.72-31.098 34.408-31.098 66.665v536.143c0 32.289 11.041 55.977 31.098 66.665 20.122 10.72 46.288 6.901 73.858-10.656l404.014-257.769c27.407-17.525 42.531-41.052 42.531-66.312 0-25.228-15.124-48.787-42.531-66.28zM1524.198 960h-1354.824c-93.523 0-169.373-74.496-169.373-166.421v-665.589c0-91.893 75.851-166.389 169.373-166.389h1354.824c93.523 0 169.341 74.496 169.341 166.389v665.589c0 91.925-75.818 166.421-169.341 166.421z" />
<glyph unicode="&#xe910;" glyph-name="join-us" horiz-adv-x="2496" d="M32 960h2406.268c17.673 0 32-14.327 32-32v-939.102c0-17.673-14.327-32-32-32h-2406.268c-17.673 0-32 14.327-32 32v939.102c0 17.673 14.327 32 32 32zM413.39 222.528c21.344 0 39.744 8.832 52.992 21.344 13.984 13.248 22.816 31.648 22.816 56.672v438.656h-61.088v-432.768c0-16.928-13.248-28.704-28.704-28.704h-27.968c-19.136 0-31.648 11.776-31.648 28.704v61.088h-61.088v-66.976c0-25.024 8.832-43.424 22.816-56.672 13.248-12.512 31.648-21.344 55.936-21.344h55.936zM736.494 222.528c27.232 0 44.896 8.832 58.144 22.080 13.984 13.248 22.080 30.176 22.080 55.936v362.112c0 25.76-8.096 42.688-22.080 55.936-13.248 13.248-31.648 22.080-58.144 22.080h-61.088c-25.76 0-44.896-8.832-58.144-22.816-13.248-13.248-21.344-30.176-21.344-55.2v-362.112c0-25.024 8.096-42.688 21.344-55.936 13.984-13.248 32.384-22.080 58.144-22.080h61.088zM755.63 306.432c0-16.928-11.776-28.704-33.12-28.704h-33.12c-20.608 0-32.384 11.776-32.384 28.704v350.336c0 16.928 11.776 28.704 32.384 28.704h33.12c21.344 0 33.12-12.512 33.12-28.704v-350.336zM991.15 224v515.2h-61.088v-515.2h61.088zM1356.942 224v515.2h-61.088v-188.416l10.304-212.704h-5.152l-19.136 75.808-102.304 325.312h-66.976v-515.2h61.088v171.488l-9.568 229.632h4.416l19.872-75.808 101.568-325.312h66.976zM1744.814 222.528c27.232 0 44.896 8.832 58.144 22.080 13.984 13.248 22.080 30.176 22.080 55.936v438.656h-61.088v-433.504c0-16.928-12.512-27.968-33.12-27.968h-33.12c-20.608 0-32.384 11.776-32.384 28.704v432.768h-61.088v-438.656c0-25.024 8.096-42.688 21.344-55.936 13.984-13.248 32.384-22.080 58.144-22.080h61.088zM2067.918 222.528c26.496 0 44.896 8.832 58.144 22.080 13.984 13.248 22.080 30.912 22.080 55.936v97.888c0 51.52-33.856 79.488-72.864 104.512l-56.672 36.064c-16.928 11.776-29.44 24.288-29.44 53.728v64.032c0 16.928 12.512 28.704 33.12 28.704h33.12c19.136 0 31.648-11.776 31.648-28.704v-61.824h61.088v67.712c0 25.024-8.096 41.952-21.344 55.2-13.984 13.984-32.384 22.816-57.408 22.816h-61.088c-27.232 0-44.896-8.832-58.144-22.080-13.984-13.248-22.080-30.176-22.080-55.936v-82.432c0-50.784 31.648-75.808 70.656-101.568l57.408-38.272c18.4-11.776 30.912-25.024 30.912-52.992v-80.96c0-16.928-12.512-28.704-32.384-28.704h-33.856c-20.608 0-32.384 11.776-32.384 28.704v61.088h-61.088v-66.976c0-25.76 8.096-43.424 22.080-56.672 13.248-12.512 30.912-21.344 58.144-21.344h60.352z" />
<glyph unicode="&#xe911;" glyph-name="close" d="M-1.348 827.259l134.088 134.088 875.829-875.829-134.088-134.088zM132.741-65.348l-134.088 134.088 875.829 875.829 134.088-134.088z" />
<glyph unicode="&#xe912;" glyph-name="arrow-left" horiz-adv-x="785" d="M274.669 448.007l510.397 384.441-105.329 127.553-679.737-511.991 679.735-512.009 105.331 127.551z" />
<glyph unicode="&#xe913;" glyph-name="play-circle" d="M467.406 657.755l231.226-181.677c18.168-14.865 18.168-41.29 0-56.155l-231.226-181.677c-5.938-4.396-13.406-7.037-21.491-7.037-19.638 0-35.638 15.579-36.313 35.053l-0.002 0.062v363.355c0 29.729 34.684 46.245 57.806 28.077zM512 2.065c246.283 0 445.935 199.652 445.935 445.935s-199.652 445.935-445.935 445.935v0c-246.283 0-445.935-199.652-445.935-445.935s199.652-445.935 445.935-445.935v0zM512-64c-282.77 0-512 229.23-512 512s229.23 512 512 512v0c282.77 0 512-229.23 512-512s-229.23-512-512-512v0z" />
<glyph unicode="&#xe914;" glyph-name="sound-circle" d="M619.355 200.258l-264.258 208.103c-8.871 7.619-14.455 18.848-14.455 31.381s5.584 23.762 14.4 31.335l0.055 0.046 264.258 206.452c26.426 21.471 66.065 1.652 66.065-31.381v-412.903c0-33.032-39.639-52.852-66.065-33.032zM295.639 547.097h216.361v-231.226h-216.361c-8.209 0-14.865 6.655-14.865 14.865v0 201.497c0 8.258 6.606 14.865 14.865 14.865zM512 2.065c246.283 0 445.935 199.652 445.935 445.935s-199.652 445.935-445.935 445.935v0c-246.283 0-445.935-199.652-445.935-445.935s199.652-445.935 445.935-445.935v0zM512-64c-282.77 0-512 229.23-512 512s229.23 512 512 512v0c282.77 0 512-229.23 512-512s-229.23-512-512-512v0z" />
</font>
</defs>
</svg>
